# xmcd CD database file
#
# Track frame offsets:
#	150
#	31910
#	57211
#	78254
#	101831
#	141929
#	173069
#	238544
#
# Disc length: 3369 seconds
#
# Revision: 0
# Processed by: cddbd v1.5.2PL0 Copyright (c) Steve Scherf et al.
# Submitted via: CDex 1.70beta2
#
DISCID=600d2708
DTITLE=CrowdofOne - THE BOX MAN
DYEAR=2007
DGENRE=Jazz
TTITLE0=Box 1 (Steve Piccolo - Gak Sato)
TTITLE1=Helix Nebula (Massimo Falascone)
TTITLE2=Box 2 (SP - GS)
TTITLE3=Capitan Cocoricò (MF)
TTITLE4=Box 3 (SP - GS) 
TTITLE5=The Room (MF) 
TTITLE6=Box 4 (SP - GS)
TTITLE7=Box 5 (SP - GS)
EXTD=YEAR: 2007
EXTT0=
EXTT1=
EXTT2=
EXTT3=
EXTT4=
EXTT5=
EXTT6=
EXTT7=
PLAYORDER=
